<?xml version="1.0" encoding="UTF-8" standalone="no"?>
<svg id="svg2" xmlns="http://www.w3.org/2000/svg" viewBox="0 0 118.9 117.53" version="1.1" xmlns:xlink="http://www.w3.org/1999/xlink">
 <defs id="defs4">
  <radialGradient id="radialGradient4398" gradientUnits="userSpaceOnUse" cy="29.79" cx="11.679" gradientTransform="matrix(0.62871242,0.47672284,-0.20537754,0.27085662,13.921444,3.5917429)" r="12.084">
   <stop id="stop3642-1" stop-color="#fcf2e2" offset="0"/>
   <stop id="stop3644-5" stop-color="#f2bb65" offset="1"/>
  </radialGradient>
  <radialGradient id="radialGradient4395" gradientUnits="userSpaceOnUse" cy="31.259" cx="35.223" gradientTransform="matrix(-0.21915472,-0.39797861,0.72132649,-0.39721392,17.923124,37.737264)" r="13.483">
   <stop id="stop3660-7" stop-color="#8f5902" offset="0"/>
   <stop id="stop3668-6" stop-color="#c17d11" offset="0.70825"/>
   <stop id="stop3662-7" stop-color="#c17d11" offset="1"/>
  </radialGradient>
  <radialGradient id="radialGradient4388" xlink:href="#linearGradient3614-6" gradientUnits="userSpaceOnUse" cy="20.775" cx="17.093" gradientTransform="matrix(0.99794998,0,0,0.89543956,1.6138457,-9.7319064)" r="4.0414"/>
  <radialGradient id="radialGradient4384" xlink:href="#linearGradient3614-6" gradientUnits="userSpaceOnUse" cy="20.145" cx="28.273" gradientTransform="matrix(0.53821643,-0.55914653,0.70673263,0.68027833,-2.538294,10.482595)" r="4.4262"/>
  <linearGradient id="linearGradient4239" y2="16.17" gradientUnits="userSpaceOnUse" x2="24.119" gradientTransform="matrix(1.0205751,0,0,0.99620023,54.219516,7.5779435)" y1="24.721" x1="25.381">
   <stop id="stop4194-1-9-8-9" stop-color="#e9b96e" offset="0"/>
   <stop id="stop4196-1-9-4-6" stop-color="#f1d19e" offset="1"/>
  </linearGradient>
  <radialGradient id="radialGradient4232" xlink:href="#linearGradient3738-1" gradientUnits="userSpaceOnUse" cy="46.457" cx="14.098" gradientTransform="matrix(0.146691,-0.00356096,0.0136885,0.563887,16.1209,18.9584)" r="2.65"/>
  <radialGradient id="radialGradient4230" xlink:href="#linearGradient3738-1" gradientUnits="userSpaceOnUse" cy="46.457" cx="14.098" gradientTransform="matrix(0.14392,0.0285967,-0.104237,0.524599,22.3455,21.7444)" r="2.65"/>
  <radialGradient id="radialGradient4228" gradientUnits="userSpaceOnUse" cy="44.544" cx="17.924" gradientTransform="matrix(0.302982,0.0896551,-0.295233,0.997716,24.448,0.224314)" r="1.9009">
   <stop id="stop3700-3" stop-color="#eeeeec" offset="0"/>
   <stop id="stop3702-8" stop-color="#eeeeec" stop-opacity="0" offset="1"/>
  </radialGradient>
  <radialGradient id="radialGradient4226" gradientUnits="userSpaceOnUse" cy="6.9539" cx="25.446" gradientTransform="matrix(0.327232,0.112128,-0.0503728,0.147007,18.4921,9.54884)" r="11.148">
   <stop id="stop3459-8" stop-color="#eeeeec" offset="0"/>
   <stop id="stop3461-8" stop-color="#eeeeec" stop-opacity="0" offset="1"/>
  </radialGradient>
  <radialGradient id="radialGradient4224" gradientUnits="userSpaceOnUse" cy="6.3288" cx="28.114" gradientTransform="matrix(0.320936,-0.197137,0.117221,0.190835,8.98324,18.5357)" r="10.579">
   <stop id="stop3267-1" stop-color="#eeeeec" stop-opacity="0.38124999" offset="0"/>
   <stop id="stop3269-2" stop-color="#eeeeec" stop-opacity="0" offset="1"/>
  </radialGradient>
  <filter id="filter3800-8" height="1.3492432" width="1.196934" color-interpolation-filters="sRGB" y="-0.1746216" x="-0.098467022">
   <feGaussianBlur id="feGaussianBlur3802-4" stdDeviation="0.21744642"/>
  </filter>
  <linearGradient id="linearGradient3738-1">
   <stop id="stop3740-5" stop-color="#eeeeec" offset="0"/>
   <stop id="stop3742-9" stop-color="#eeeeec" stop-opacity="0" offset="1"/>
  </linearGradient>
  <filter id="filter3734-5" height="1.2398002" width="1.2070453" color-interpolation-filters="sRGB" y="-0.11990009" x="-0.10352264">
   <feGaussianBlur id="feGaussianBlur3736-6" stdDeviation="0.17723937"/>
  </filter>
  <filter id="filter3609-5" height="1.2512935" width="1.1765709" color-interpolation-filters="sRGB" y="-0.12564676" x="-0.088285454">
   <feGaussianBlur id="feGaussianBlur3611-0" stdDeviation="0.79028152"/>
  </filter>
  <filter id="filter3425-9" color-interpolation-filters="sRGB">
   <feGaussianBlur id="feGaussianBlur3427-3" stdDeviation="0.39171186"/>
  </filter>
  <linearGradient id="linearGradient3614-6">
   <stop id="stop3616-5" stop-color="#eeeeec" offset="0"/>
   <stop id="stop3630-6" stop-color="#eeeeec" offset="0.81226"/>
   <stop id="stop3618-3" stop-color="#babdb6" offset="1"/>
  </linearGradient>
  <linearGradient id="linearGradient5606" y2="16.021" gradientUnits="userSpaceOnUse" x2="22.072" gradientTransform="matrix(1.0091904,0,0,1.0973044,0.40835489,2.9868519)" y1="9.7577" x1="21.907">
   <stop id="stop4989" stop-color="#a0670c" offset="0"/>
   <stop id="stop4991" stop-color="#a0670c" stop-opacity="0" offset="1"/>
  </linearGradient>
  <linearGradient id="linearGradient5604" y2="12.637" gradientUnits="userSpaceOnUse" x2="34.194" gradientTransform="matrix(1.0091904,0,0,1.1403011,0.40835489,2.9423338)" y1="12.637" x1="16.149">
   <stop id="stop4184" stop-color="#a36d18" offset="0"/>
   <stop id="stop4186" stop-color="#d79020" offset="1"/>
  </linearGradient>
  <linearGradient id="linearGradient2288" y2="22.585" gradientUnits="userSpaceOnUse" x2="24.99" gradientTransform="matrix(1.0106251,0,0,1.0106251,0.37492254,3.801186)" y1="34.005" x1="24.99">
   <stop id="stop4212" stop-color="#eaba6f" offset="0"/>
   <stop id="stop4214" stop-color="#b97a1b" offset="1"/>
  </linearGradient>
  <linearGradient id="linearGradient2285" y2="47.388" gradientUnits="userSpaceOnUse" x2="30.015" gradientTransform="matrix(1.0106251,0,0,1.0106251,0.37492254,3.801186)" y1="19.912" x1="18.707">
   <stop id="stop4224" stop-color="#FFF" offset="0"/>
   <stop id="stop4226" stop-color="#FFF" stop-opacity="0.68639052" offset="1"/>
  </linearGradient>
  <linearGradient id="linearGradient2274" y2="15.268" gradientUnits="userSpaceOnUse" x2="47.066" gradientTransform="matrix(1.0106251,0,0,1.0106251,0.37492254,3.801186)" y1="14.662" x1="36.289">
   <stop id="stop4997" stop-color="#de9523" offset="0"/>
   <stop id="stop4999" stop-color="#a36d18" offset="1"/>
  </linearGradient>
  <linearGradient id="linearGradient6715" y2="609.51" gradientUnits="userSpaceOnUse" x2="302.86" gradientTransform="matrix(2.774389,0,0,1.969706,-1892.179,-872.8854)" y1="366.65" x1="302.86">
   <stop id="stop5050" stop-color="#000" stop-opacity="0" offset="0"/>
   <stop id="stop5056" stop-color="#000" offset="0.5"/>
   <stop id="stop5052" stop-color="#000" stop-opacity="0" offset="1"/>
  </linearGradient>
  <radialGradient id="radialGradient6717" xlink:href="#linearGradient5060" gradientUnits="userSpaceOnUse" cy="486.65" cx="605.71" gradientTransform="matrix(2.774389,0,0,1.969706,-1891.633,-872.8854)" r="117.14"/>
  <linearGradient id="linearGradient5060">
   <stop id="stop5062" stop-color="#000" offset="0"/>
   <stop id="stop5064" stop-color="#000" stop-opacity="0" offset="1"/>
  </linearGradient>
  <radialGradient id="radialGradient6719" xlink:href="#linearGradient5060" gradientUnits="userSpaceOnUse" cy="486.65" cx="605.71" gradientTransform="matrix(-2.774389,0,0,1.969706,112.7623,-872.8854)" r="117.14"/>
 </defs>
 <g id="layer1" transform="translate(-194.41372,-85.568118)">
  <g id="layer1-8" transform="matrix(2.5000135,0,0,2.4999856,193.45798,86.869091)">
   <g id="g6707" fill-rule="nonzero" transform="matrix(0.02127832,0,0,0.0210893,43.429288,39.580951)">
    <rect id="rect6709" opacity="0.40206" style="color:#000000;" height="478.36" width="1339.6" y="-150.7" x="-1559.3" fill="url(#linearGradient6715)"/>
    <path id="path6711" opacity="0.40206185" style="color:#000000;" d="m-219.62-150.68v478.33c142.87,0.90045,345.4-107.17,345.4-239.2s-159.44-239.13-345.4-239.13z" fill="url(#radialGradient6717)"/>
    <path id="path6713" opacity="0.40206185" style="color:#000000;" d="m-1559.3-150.68v478.33c-142.87,0.90045-345.4-107.17-345.4-239.2s159.44-239.13,345.4-239.13z" fill="url(#radialGradient6719)"/>
   </g>
   <rect id="rect3115" stroke-linejoin="miter" style="color:#000000;stroke-dasharray:none;" fill-rule="nonzero" stroke-dashoffset="0" rx="2.4499" ry="2.4199" height="23.358" width="32.318" stroke="#a0670c" stroke-linecap="butt" stroke-miterlimit="4" display="block" y="19.239" x="7.9166" stroke-width="1.0106" fill="url(#linearGradient2288)"/>
   <rect id="rect4220" opacity="0.48101" stroke-linejoin="miter" style="color:#000000;stroke-dasharray:none;" display="block" stroke-dashoffset="0" rx="1.2983" ry="1.2983" height="21.299" width="30.121" stroke="url(#linearGradient2285)" stroke-linecap="butt" stroke-miterlimit="4" y="20.217" x="8.9642" stroke-width="1.0106" fill="none"/>
   <path id="path4162" stroke-linejoin="miter" style="stroke-dasharray:none;" d="m9.2587,21.144,5.0964-7.4736,18.968-0.11084,5.2679,7.4327-29.333,0.15169z" fill-rule="evenodd" stroke="url(#linearGradient5606)" stroke-linecap="butt" stroke-miterlimit="4" stroke-width="1.05232644" fill="url(#linearGradient5604)"/>
   <path id="path4178" stroke-linejoin="round" style="color:#000000;stroke-dasharray:none;" d="m33.573,13.517,4.7326,6.9958,9.1296,4.4314-8.2007-9.0074-5.6615-2.4199z" fill-rule="nonzero" stroke-dashoffset="0" display="block" stroke="#a0670c" stroke-linecap="round" stroke-miterlimit="4" stroke-width="1.0106256" fill="url(#linearGradient2274)"/>
   <path id="path4180" stroke-linejoin="round" style="color:#000000;stroke-dasharray:none;" d="m14.137,13.62-3.3109,6.3497-9.9388,4.8734,8.2007-9.0074,5.049-2.2157z" fill-rule="nonzero" stroke-dashoffset="0" display="block" stroke="#a0670c" stroke-linecap="round" stroke-miterlimit="4" stroke-width="1.010625" fill="#f8e8cf"/>
   <path id="path2445" fill-rule="evenodd" fill="url(#radialGradient4398)" d="m17.457,15.425s-1.205,1.3866-1.5517,2.6081c-0.34665,1.2215-0.34665,2.2615-0.28062,2.5421,0.06603,0.28062,0.41268,1.1885,0.77584,1.6012,0.36316,0.41268,1.3866,1.2545,1.3866,1.2545s1.3453,0.31364,1.7167,0.41268c0.37141,0.09904,2.212,0.53649,2.798,0.74282,0.58601,0.20634,1.3041,0.49522,1.3371,0.49522,0.03301,0,0.25586-0.14856,0.79234-0.33014,0.53648-0.18157,1.7828-0.59426,2.2532-0.67679,0.47046-0.08253,0.70155-0.18157,0.89139-0.14856,0.18984,0.033,0.24761-0.11556,0.66029-0.22285s1.5187-0.14856,1.791-0.18984c0.27237-0.04128,1.2876-1.0317,1.4279-1.2545,0.14031-0.22285,0.16507-0.18984-0.02477-0.39617-0.18982-0.20634,0.28062-1.1638,0.27237-1.2628-0.0083-0.09904,0.02475-0.47871-0.10731-1.2215-0.13206-0.74282-0.55299-1.8405-1.1803-2.7732-0.62727-0.93265-0.93265-1.2298-0.93265-1.2298s-0.71806,0.56125-1.3206,0.96567c-0.60251,0.40442-1.3288,1.0234-1.9478,1.4196-0.61902,0.39617-1.8406,1.0812-2.5256,1.1803-0.68505,0.09904-2.9891-0.87158-3.5091-1.2512-0.51998-0.37967-1.5504-1.1671-1.7237-1.3321-0.17332-0.16507-0.91615-0.85012-0.94091-0.91615-0.02475-0.06603-0.04953,0-0.05778-0.01642z"/>
   <path id="path2443" stroke-linejoin="miter" style="stroke-dasharray:none;" d="m15.426,10.291c-0.08253,0.39617,0.09904,2.4431,0.31364,2.9878,0.2146,0.54474,0.6768,1.3041,0.72632,1.4526-0.63067,0.90192-0.99918,1.8932-1.2711,2.9548-0.2465,0.92233,0.06649,1.9189,0.37101,2.6533-0.20328-1.9431,0.7176-3.485,1.8204-4.9808,0,0,0.54056,0.61077,0.90372,0.85837,0.36316,0.24761,1.7745,1.4691,2.2945,1.8488,0.51998,0.37967,2.0139,1.3453,3.7141,0.70156,1.7002-0.64378,2.5339-1.5352,3.2684-2.0469,0.73457-0.51172,1.5022-0.98218,1.8983-1.3371,0.40954,0.43045,0.35583,0.26728,1.3371,1.8158,0.23935,0.43744,0.5695,1.1803,0.71806,1.659,0.14856,0.47871,0.21459,1.4361,0.22285,1.6177,0.0083,0.18157,0.52823-0.95742,0.61076-1.172,0.08253-0.21459,0.14856-1.2711-0.2311-2.5173-0.37966-1.2463-0.37966-1.3866-0.51998-1.6837-0.14031-0.29713-0.2311-0.24761-0.20634-0.38792,0.02475-0.14031,0.4622-0.55299,0.6933-1.4774,0.2311-0.9244,0.24761-2.1459,0.04953-2.8475-0.434-4.1683-4.813-6.7342-9.198-6.0506-3.759,0.5546-9.062-0.1991-7.515,5.9496z" fill-rule="evenodd" stroke="#2e3436" stroke-linecap="butt" stroke-miterlimit="4" stroke-width="0.66669112" fill="url(#radialGradient4395)"/>
   <path id="path2401" stroke-linejoin="miter" style="stroke-dasharray:none;" d="m15.586,26.112c-0.04758-1.5077,1.0143-2.0491,2.2177-2.673,0.03059-0.08491,1.0385-0.02114,1.6364,0.40263,1.6793,0.06423,2.7725,0.38408,4.1648,1.2548,0.07003,0.07003,0.01159,1.1906,0.01159,1.1906-1.4688,0.37333-2.9297,0.36916-4.3538,0.17508-1.5357,0.22771-2.6234,0.07262-3.6768-0.35017z" fill-rule="evenodd" stroke="#2e3436" stroke-linecap="butt" stroke-miterlimit="4" stroke-width="0.66669112" fill="#8f5902"/>
   <path id="path4956" stroke-linejoin="miter" style="stroke-dasharray:none;" d="m19.455,23.859s-0.26846,0.37935-0.33266,0.93962-0.11088,1.6458-0.11088,1.6458" stroke="#2e3436" stroke-linecap="butt" stroke-miterlimit="4" stroke-width="0.66669112" fill="none"/>
   <path id="path2411" stroke-linejoin="miter" style="stroke-dasharray:none;" d="m15.381,10.441s-0.03502,0.68283,0.04669,1.2373c0.0817,0.55444,0.25096,1.2314,0.29764,1.4532,0.04669,0.22177,0.02334,0.20427,0.01159,0.22761-0.01159,0.02334-0.46689,0.98048-1.1964,1.6633-0.72952,0.68283-1.2664,0.99798-1.5174,1.0272-0.25096,0.02918-0.50191-0.1459-0.50775-0.43188,0.000504-1.2915,0.42075-2.3018,1.1497-3.3441,0.3385-0.43188,1.068-1.459,1.3482-1.6633,0.28014-0.20426,0.38519-0.16924,0.36768-0.16924z" fill-rule="evenodd" stroke="#2e3436" stroke-linecap="butt" stroke-miterlimit="4" stroke-width="0.66669112" fill="#8f5902"/>
   <path id="path2413" stroke-linejoin="miter" style="stroke-dasharray:none;" d="m15.376,10.424c-0.49935,0.11119-0.70104,0.70966-1.2617,0.32427-3.443-1.0195-4.8493-4.4882-4.4726-7.8441-0.0114-0.5133,0.4066-1.4877,0.9386-0.7615,1.1071,1.1818,1.6533,4.9843,3.761,4.0338,0.81835-0.69444,1.3396-1.6604,2.044-2.4608,1.572-1.9735,3.7086-2.9067,6.1685-2.9091,0.38358,0.13502,1.516-0.22104,1.0018,0.42945-0.39933,1.1762-0.37228,2.4371-0.30793,3.6615-2.3276,0.2192-4.582,1.1448-6.387,2.6285-0.72547,0.82764-1.0248,1.9216-1.4852,2.8982z" fill-rule="evenodd" stroke="#2e3436" stroke-linecap="butt" stroke-miterlimit="4" stroke-width="0.66669112" fill="#555753"/>
   <path id="path2415" fill-rule="evenodd" fill="url(#radialGradient4388)" d="m22.636,10.841c-0.52844,1.1894-2.6084,1.9283-4.0153,1.7859-1.2795-0.12949-1.5264-1.9924-1.0855-3.1515,0.60894-1.6011,2.3651-2.147,3.7935-1.2022,0.88856,0.58769,1.6567,1.7815,1.3073,2.5679z"/>
   <path id="path2417" fill="#2e3436" d="m799.75-257.75a17.25,17.25,0,1,1,-34.5,0,17.25,17.25,0,1,1,34.5,0z" transform="matrix(0.04668938,0,0,0.04668938,-15.941254,22.594974)"/>
   <path id="path2421" fill-rule="evenodd" fill="url(#radialGradient4384)" d="m25.963,11.913c1.1263,0.5402,2.3194,1.1272,3.4172,0.65442,0.93289-0.40177,1.0027-1.5103,0.83106-2.4732-0.27367-1.5354-1.8071-2.2958-3.2165-2.2943-1.3735,0.00153-2.1055,1.1667-2.5415,2.401-0.35284,0.99893,0.70677,1.327,1.5097,1.7121z"/>
   <path id="path2419" fill="#2e3436" d="m799.75-257.75a17.25,17.25,0,1,1,-34.5,0,17.25,17.25,0,1,1,34.5,0z" transform="matrix(0.04668938,0,0,0.04668938,-10.225443,22.654976)"/>
   <path id="path2423" fill-rule="evenodd" fill="#2e3436" d="m21.953,15.151c0.0058-0.02334-0.42604-0.677-0.71201-0.89293-0.28597-0.21594-0.46106-0.32099-0.71785-0.33266-0.25679-0.01159-0.37935,0.02334-0.4202,0.10505-0.04085,0.0817,0.09338,0.17508,0.46106,0.37935s1.389,0.74703,1.389,0.74119z"/>
   <path id="path2425" fill-rule="evenodd" fill="#2e3436" d="m23.889,15.151c-0.0058-0.02334,0.42604-0.677,0.71201-0.89293,0.28597-0.21594,0.46106-0.32099,0.71785-0.33266,0.25679-0.01159,0.37935,0.02334,0.4202,0.10505,0.04085,0.0817-0.09337,0.17508-0.46106,0.37935-0.36768,0.20427-1.389,0.74703-1.389,0.74119z"/>
   <path id="path2427" fill-rule="evenodd" fill="#2e3436" d="m18.62,15.224c1.2467,1.4668,2.5182,2.7491,4.3657,2.8478,1.7623,0.09415,3.1599-1.578,4.642-2.5346-1.4956,0.84932-3.0384,2.0872-4.6536,2.1611-1.8393-0.12466-3.035-1.2866-4.354-2.4743z"/>
   <path id="path2429" stroke-linejoin="miter" style="stroke-dasharray:none;" d="m23.663,25.061-0.02334,1.2664c1.3762,0.26301,2.7585,0.31605,4.1437,0.18093,1.4895,0.16787,2.973,0.07764,4.3071-0.3385-0.09803-1.5053-1.0016-2.0665-2.0835-2.6029-0.8103-0.0247-1.4913,0.05762-2.1535,0.30932-1.5706,0.12116-2.9748,0.56225-4.1904,1.1847z" fill-rule="evenodd" stroke="#2e3436" stroke-linecap="butt" stroke-miterlimit="4" stroke-width="0.66669112" fill="#8f5902"/>
   <path id="path2431" stroke-linejoin="miter" style="stroke-dasharray:none;" d="m27.684,23.946s0.13422,0.6128,0.15757,1.0914c0.02334,0.47857-0.02334,1.4766-0.02334,1.4766" stroke="#2e3436" stroke-linecap="butt" stroke-miterlimit="4" stroke-width="0.66669112" fill="none"/>
   <path id="path2439" stroke-linejoin="miter" style="stroke-dasharray:none;" d="m32.247,10.308s0.33015-0.08253,1.139,1.0565,1.3866,1.8488,1.6012,2.5916c0.21459,0.74282,0.42919,1.5682,0.25586,1.8323-0.17332,0.26412-0.3384,0.33014-0.76759,0.09078-0.42918-0.23936-1.4856-1.0647-1.8983-1.7167-0.41268-0.65203-0.51172-0.82536-0.51172-0.82536s0.28888-1.0152,0.26412-1.5104c-0.02475-0.49522-0.14856-1.3371-0.17332-1.3949-0.02475-0.05778,0.11556-0.11556,0.09078-0.12381z" fill-rule="evenodd" stroke="#2e3436" stroke-linecap="butt" stroke-miterlimit="4" stroke-width="0.66669112" fill="#8f5902"/>
   <path id="path2441" stroke-linejoin="miter" style="stroke-dasharray:none;" d="M23.796,0.85731c-0.766,1.1738-0.537,2.6351-0.504,3.957,1.083,0.1234,4.1748,1.354,6.1641,2.2205,0.8969,0.47778,1.4806,1.3488,1.9432,2.2217,0.49225,0.64537,1.0351,1.691,1.9909,1.536,2.5432-0.54052,4.3068-2.3742,4.6563-4.976,0.15-1.347-0.002-2.7762-0.664-3.9759-0.626-0.8224-1.155,0.5132-1.306,1.0291-0.386,1.1142-0.231,3.0556-1.327,3.3028-2.207,0.4976-3.805-3.3985-6.038-4.6712-1.51-0.78132-3.257-0.95219-4.915-0.64349z" fill-rule="evenodd" stroke="#2e3436" stroke-linecap="butt" stroke-miterlimit="4" stroke-width="0.66669112" fill="#555753"/>
   <path id="path3251" stroke-linejoin="miter" d="m31.426,22.071s-0.6482,0.92811-0.94284,1.1786c-0.29464,0.25044-0.29464,0.25044-0.29464,0.25044" stroke="#2e3436" stroke-linecap="butt" stroke-width="0.66669112px" fill="none"/>
   <path id="path3253" stroke-linejoin="miter" d="m15.973,21.747c0.28973,0.70042,1.1442,1.0786,1.6794,1.591" stroke="#2e3436" stroke-linecap="butt" stroke-width="0.66669112px" fill="none"/>
   <path id="path3255" d="m12.783,24.42c-0.749,0.16677-1.0515,1.0644-1.8926,0.48639-5.1642-1.529-7.2735-6.732-6.7084-11.766-0.0171-0.77,0.6102-2.231,1.4086-1.142,1.6606,1.7726,2.4798,7.4762,5.6412,6.0504,1.2275-1.0416,2.0093-2.4906,3.0658-3.691,2.3579-2.9602,5.5626-4.3599,9.2524-4.3635,0.57535,0.20252,2.2739-0.33154,1.5027,0.64415-0.59898,1.7643-0.5584,3.6556-0.46188,5.492-3.4913,0.32878-6.8728,1.7172-9.5801,3.9427-1.0882,1.2414-1.5371,2.8823-2.2277,4.3472z" fill-rule="evenodd" transform="matrix(0.66669115,0,0,0.66669115,6.8535845,-5.8564713)" filter="url(#filter3425-9)" fill="url(#radialGradient4224)"/>
   <path id="path3429" fill="none" d="M23.796,0.85731c-0.766,1.1738-0.537,2.6351-0.504,3.957,1.083,0.1234,4.1748,1.354,6.1641,2.2205,0.8969,0.47778,1.4806,1.3488,1.9432,2.2217,0.49225,0.64537,1.0351,1.691,1.9909,1.536,2.5432-0.54052,4.3068-2.3742,4.6563-4.976,0.15-1.347-0.002-2.7762-0.664-3.9759-0.626-0.8224-1.155,0.5132-1.306,1.0291-0.386,1.1142-0.231,3.0556-1.327,3.3028-2.207,0.4976-3.805-3.3985-6.038-4.6712-1.51-0.78132-3.257-0.95219-4.915-0.64349z"/>
   <path id="path3447" opacity="0.621875" d="m26.225,10.133c-1.148,1.7606-0.80457,3.9524-0.75512,5.9352,1.6245,0.18509,5.4495,1.9684,8.4333,3.2682,1.3453,0.71664,2.2209,2.0231,2.9147,3.3324,0.73835,0.96802,1.5527,2.5365,2.9862,2.304,3.8147-0.81074,6.4599-3.5612,6.9841-7.4637,0.22366-2.0212-0.0034-4.165-0.9965-5.9644-0.93972-1.2336-1.7331,0.76971-1.9586,1.5436-0.57998,1.6711-0.34709,4.5832-1.9916,4.954-3.3104,0.74636-5.7069-5.0976-9.0568-7.0066-2.264-1.1714-4.073-1.3652-6.559-0.902z" fill-rule="evenodd" transform="matrix(0.66669115,0,0,0.66669115,6.8535845,-5.8564713)" filter="url(#filter3609-5)" fill="url(#radialGradient4226)"/>
   <path id="path3654" stroke-linejoin="miter" d="m16.37,14.529c0.25412,0.33159,0.29616,0.31969,0.82499,0.60401" stroke="#2e3436" stroke-linecap="butt" stroke-width="0.66669112px" fill="none"/>
   <path id="path3656" stroke-linejoin="miter" d="m29.57,15.339c0.26463-0.46487,1.3651-0.16288,1.9446-0.81026" stroke="#2e3436" stroke-linecap="butt" stroke-width="0.66669112px" fill="none"/>
   <path id="path3672" opacity="0.371875" d="m17.702,44.844,0,0zm-0.40128,3.1394zm0.40128-3.1394c-0.67645-0.34814-1.5743-0.3923-1.6051-0.30686-1.3635,0.70679-2.556,1.3132-2.5021,3.0214,1.0846,0.43534,2.2052,0.58846,3.706,0.42489z" fill-rule="evenodd" transform="matrix(0.66669115,0,0,0.66669115,6.8535845,-5.8564713)" filter="url(#filter3734-5)" fill="url(#radialGradient4228)"/>
   <path id="path3683" opacity="0.49375" d="m18.517,47.914c0.18646-0.01788,0.36462-0.01554,0.56429-0.04514,1.5429,0.21026,3.1262,0.22389,4.7175-0.18057,0,0,0.0533-1.2333-0.02257-1.3092-1.5084-0.94338-2.695-1.2847-4.5143-1.3543l-0.74486,2.8892z" fill-rule="evenodd" transform="matrix(0.66669115,0,0,0.66669115,6.8535845,-5.8564713)" filter="url(#filter3800-8)" fill="url(#radialGradient4230)"/>
   <path id="path3804" opacity="0.446875" d="m17.81,46.5c0.18646-0.01788,0.36462-0.01554,0.56429-0.04514,1.5429,0.21026,3.1262,0.22389,4.7175-0.18057,0,0,0.0533-1.2333-0.02257-1.3092-1.5084-0.94338-2.695-1.2847-4.5143-1.3543l-0.74486,2.8892z" fill-rule="evenodd" transform="matrix(-0.66669115,0,0,0.66669115,39.481315,-4.7886255)" filter="url(#filter3800-8)" fill="url(#radialGradient4232)"/>
   <g id="Layer_1" transform="matrix(0.10620244,0,0,0.10620244,19.007904,28.468435)">
    <g id="g4405" fill="#d70751">
     <path id="path4407" d="m51.986,57.297c-1.797,0.025,0.34,0.926,2.686,1.287,0.648-0.506,1.236-1.018,1.76-1.516-1.461,0.358-2.948,0.366-4.446,0.229"/>
     <path id="path4409" d="m61.631,54.893c1.07-1.477,1.85-3.094,2.125-4.766-0.24,1.192-0.887,2.221-1.496,3.307-3.359,2.115-0.316-1.256-0.002-2.537-3.612,4.546-0.496,2.726-0.627,3.996"/>
     <path id="path4411" d="m65.191,45.629c0.217-3.236-0.637-2.213-0.924-0.978,0.335,0.174,0.6,2.281,0.924,0.978"/>
     <path id="path4413" d="m45.172,1.399c0.959,0.172,2.072,0.304,1.916,0.533,1.049-0.23,1.287-0.442-1.916-0.533"/>
     <path id="path4415" d="M47.088,1.932,46.41,2.072,47.041,2.016,47.088,1.932"/>
     <path id="path4417" d="m76.992,46.856c0.107,2.906-0.85,4.316-1.713,6.812l-1.553,0.776c-1.271,2.468,0.123,1.567-0.787,3.53-1.984,1.764-6.021,5.52-7.313,5.863-0.943-0.021,0.639-1.113,0.846-1.541-2.656,1.824-2.131,2.738-6.193,3.846l-0.119-0.264c-10.018,4.713-23.934-4.627-23.751-17.371-0.107,0.809-0.304,0.607-0.526,0.934-0.517-6.557,3.028-13.143,9.007-15.832,5.848-2.895,12.704-1.707,16.893,2.197-2.301-3.014-6.881-6.209-12.309-5.91-5.317,0.084-10.291,3.463-11.951,7.131-2.724,1.715-3.04,6.611-4.227,7.507-1.597,11.737,3.004,16.808,10.787,22.773,1.225,0.826,0.345,0.951,0.511,1.58-2.586-1.211-4.954-3.039-6.901-5.277,1.033,1.512,2.148,2.982,3.589,4.137-2.438-0.826-5.695-5.908-6.646-6.115,4.203,7.525,17.052,13.197,23.78,10.383-3.113,0.115-7.068,0.064-10.566-1.229-1.469-0.756-3.467-2.322-3.11-2.615,9.182,3.43,18.667,2.598,26.612-3.771,2.021-1.574,4.229-4.252,4.867-4.289-0.961,1.445,0.164,0.695-0.574,1.971,2.014-3.248-0.875-1.322,2.082-5.609l1.092,1.504c-0.406-2.696,3.348-5.97,2.967-10.234,0.861-1.304,0.961,1.403,0.047,4.403,1.268-3.328,0.334-3.863,0.66-6.609,0.352,0.923,0.814,1.904,1.051,2.878-0.826-3.216,0.848-5.416,1.262-7.285-0.408-0.181-1.275,1.422-1.473-2.377,0.029-1.65,0.459-0.865,0.625-1.271-0.324-0.186-1.174-1.451-1.691-3.877,0.375-0.57,1.002,1.478,1.512,1.562-0.328-1.929-0.893-3.4-0.916-4.88-1.49-3.114-0.527,0.415-1.736-1.337-1.586-4.947,1.316-1.148,1.512-3.396,2.404,3.483,3.775,8.881,4.404,11.117-0.48-2.726-1.256-5.367-2.203-7.922,0.73,0.307-1.176-5.609,0.949-1.691-2.27-8.352-9.715-16.156-16.564-19.818,0.838,0.767,1.896,1.73,1.516,1.881-3.406-2.028-2.807-2.186-3.295-3.043-2.775-1.129-2.957,0.091-4.795,0.002-5.23-2.774-6.238-2.479-11.051-4.217l0.219,1.023c-3.465-1.154-4.037,0.438-7.782,0.004-0.228-0.178,1.2-0.644,2.375-0.815-3.35,0.442-3.193-0.66-6.471,0.122,0.808-0.567,1.662-0.942,2.524-1.424-2.732,0.166-6.522,1.59-5.352,0.295-4.456,1.988-12.37,4.779-16.811,8.943l-0.14-0.933c-2.035,2.443-8.874,7.296-9.419,10.46l-0.544,0.127c-1.059,1.793-1.744,3.825-2.584,5.67-1.385,2.36-2.03,0.908-1.833,1.278-2.724,5.523-4.077,10.164-5.246,13.97,0.833,1.245,0.02,7.495,0.335,12.497-1.368,24.704,17.338,48.69,37.785,54.228,2.997,1.072,7.454,1.031,11.245,1.141-4.473-1.279-5.051-0.678-9.408-2.197-3.143-1.48-3.832-3.17-6.058-5.102l0.881,1.557c-4.366-1.545-2.539-1.912-6.091-3.037l0.941-1.229c-1.415-0.11-3.748-2.388-4.386-3.649l-1.548,0.061c-1.86-2.295-2.851-3.949-2.779-5.23l-0.5,0.891c-0.567-0.973-6.843-8.607-3.587-6.83-0.605-0.553-1.409-0.9-2.281-2.484l0.663-0.758c-1.567-2.016-2.884-4.6-2.784-5.461,0.836,1.129,1.416,1.34,1.99,1.533-3.957-9.818-4.179-0.541-7.176-9.994l0.634-0.051c-0.486-0.732-0.781-1.527-1.172-2.307l0.276-2.75c-2.849-3.294-0.797-14.006-0.386-19.881,0.285-2.389,2.378-4.932,3.97-8.92l-0.97-0.167c1.854-3.234,10.586-12.988,14.63-12.486,1.959-2.461-0.389-0.009-0.772-0.629,4.303-4.453,5.656-3.146,8.56-3.947,3.132-1.859-2.688,0.725-1.203-0.709,5.414-1.383,3.837-3.144,10.9-3.846,0.745,0.424-1.729,0.655-2.35,1.205,4.511-2.207,14.275-1.705,20.617,1.225,7.359,3.439,15.627,13.605,15.953,23.17l0.371,0.1c-0.188,3.802,0.582,8.199-0.752,12.238l0.908-1.912"/>
     <path id="path4419" d="m32.372,59.764-0.252,1.26c1.181,1.604,2.118,3.342,3.626,4.596-1.085-2.118-1.891-2.993-3.374-5.856"/>
     <path id="path4421" d="m35.164,59.654c-0.625-0.691-0.995-1.523-1.409-2.352,0.396,1.457,1.207,2.709,1.962,3.982l-0.553-1.63"/>
     <path id="path4423" d="m84.568,48.916-0.264,0.662c-0.484,3.438-1.529,6.84-3.131,9.994,1.77-3.328,2.915-6.968,3.395-10.656"/>
     <path id="path4425" d="M45.527,0.537c1.215-0.445,2.987-0.244,4.276-0.537-1.68,0.141-3.352,0.225-5.003,0.438l0.727,0.099"/>
     <path id="path4427" d="m2.872,23.219c0.28,2.592-1.95,3.598,0.494,1.889,1.31-2.951-0.512-0.815-0.494-1.889"/>
     <path id="path4429" d="M0,35.215c0.563-1.728,0.665-2.766,0.88-3.766-1.556,1.989-0.716,2.413-0.88,3.766"/>
    </g>
   </g>
   <g id="g4285" transform="translate(-53.563339,-2.6516504)">
    <path id="path4699-0" stroke-linejoin="miter" d="m64.21,23.757,2.2613-4.7443" stroke-opacity="0.88789236" stroke="#f4e3ca" stroke-linecap="butt" stroke-width="1px" fill="none"/>
    <path id="path4164" stroke-linejoin="round" style="color:#000000;stroke-dasharray:none;" d="m92.753,23.791,5.8301,7.2223-40.321,0,4.76-7.2715,29.731,0.04919z" fill-rule="nonzero" stroke-dashoffset="0" display="block" stroke="#a0670c" stroke-linecap="round" stroke-miterlimit="4" stroke-width="1.01526499" fill="url(#linearGradient4239)"/>
    <path id="path4699" stroke-linejoin="miter" d="m92.126,23.833-3.2025-5.0226" stroke-opacity="0.88789236" stroke="#f4e3ca" stroke-linecap="butt" stroke-width="0.89844155px" fill="none"/>
    <path id="path4954" stroke-linejoin="miter" style="color:#000000;stroke-dasharray:none;" d="m92.05,23.858,4.5014,6.1174-36.568,0,4.2262-6.242s27.84,0.0362,27.84,0.12459z" stroke-dashoffset="0" display="block" stroke="#f4e3ca" stroke-linecap="butt" stroke-miterlimit="4" stroke-width="1.01526439" fill="none"/>
   </g>
   <g id="g4343" stroke-linejoin="miter" stroke="#2e3436" stroke-linecap="butt" transform="matrix(1.9324169,0,0,1.9324169,-124.15454,-80.475461)">
    <path id="path2437" style="stroke-dasharray:none;" d="m82.542,51.658s-0.07261-0.87772-0.46555-1.3262c-0.3828-0.44427-1.0031-0.74857-1.5321-0.91302,0.13303,0.47302,0.43794,1.1104,0.50279,2.0192-0.01281,0.17085-0.01281,0.17085-0.01281,0.17085,0.28872-0.23059,0.49363-0.1545,0.78589-0.07688,0.23839-0.18575,0.46896,0.0093,0.72182,0.126z" fill-rule="evenodd" stroke-miterlimit="4" stroke-width="0.34500378" fill="#c17d11"/>
    <path id="path2433" style="stroke-dasharray:none;" d="m81.803,51.521c-0.46333-0.22195-0.7125-0.01147-0.84564,0.19027-0.07327,0.11102-0.3141,0.61007-0.36544,0.7792s-0.10872,0.39564-0.08154,0.45906,0.22953,0.27181,0.5406,0.35034c0.31107,0.07852,0.48322,0.09664,0.73691,0.09664s0.71577-0.02114,1.048-0.25067c0.33222-0.22953,0.07248-0.84866-0.04832-1.0842-0.24209-0.46963-0.54148-0.76827-0.98456-0.5406z" fill-rule="evenodd" stroke-miterlimit="4" stroke-width="0.34500378" fill="#8f5902"/>
    <path id="path2435" style="stroke-dasharray:none;" d="m80.513,52.941c0.20901-0.59999,0.70718-0.74872,1.3107-0.47718,0.62176-0.3198,0.86185,0.07801,1.1658,0.44698-0.003,0.05436-0.0479,0.25067-0.29555,0.32316-0.24765,0.07248-0.44136,0.17215-0.95479,0.15705-0.51342-0.0151-0.81242-0.13201-0.9302-0.19845s-0.30201-0.24551-0.29597-0.25155z" fill-opacity="0" stroke-miterlimit="4" stroke-width="0.34500378"/>
    <path id="path3652" d="m81.823,51.49c-0.17041,0.03806-0.10487,0.98782,0.01617,0.97571" stroke-width="0.34500378px" fill="none"/>
   </g>
   <g id="g4349" stroke-linejoin="miter" stroke="#2e3436" stroke-linecap="butt" transform="matrix(1.9324169,0,0,1.9324169,-124.15454,-80.475461)">
    <path id="path2409" style="stroke-dasharray:none;" d="m70.671,51.6c0.20917-1.2127,1.0351-1.8356,2.075-2.1904-0.36222,0.71856-0.64457,1.372-0.65855,2.1693-0.31065,0.34194-1.0047,0.39723-1.4164,0.02114z" fill-rule="evenodd" stroke-miterlimit="4" stroke-width="0.34500378" fill="#c17d11"/>
    <path id="path2405" style="stroke-dasharray:none;" d="m71.244,51.548c-0.44412-0.22587-0.61305,0.12327-0.84904,0.43503-0.18152,0.36732-0.21783,0.57447-0.22637,0.66202-0.0085,0.08756-0.01495,0.18793,0.03417,0.26481s0.36732,0.33955,0.88199,0.40362,0.9311,0.01068,1.0977-0.03844c0.16657-0.04912,0.36945-0.21569,0.36945-0.28616-0.08262-0.30739-0.2095-0.65099-0.31601-0.98075-0.13247-0.41016-0.35544-0.61548-0.99187-0.46013z" fill-rule="evenodd" stroke-miterlimit="4" stroke-width="0.34500378" fill="#8f5902"/>
    <path id="path2407" style="stroke-dasharray:none;" d="m71.145,52.432c-0.44277-0.18198-0.89543-0.02546-0.97241,0.23613-0.01922,0.05125-0.02211,0.22226,0.08039,0.30128,0.10251,0.07902,0.41464,0.31301,0.67091,0.32796,0.50884,0.10369,1.0864,0.05495,1.4811-0.14462,0.29122-0.21752,0.02883-0.50238-0.13697-0.62813-0.38406-0.13394-0.71131-0.23135-1.1231-0.09261z" fill-rule="evenodd" stroke-miterlimit="4" stroke-width="0.34500378" fill="#8f5902"/>
    <path id="path3650" d="m71.36,51.522c-0.14022-0.05112-0.3087,0.86411-0.19946,0.92181" stroke-width="0.34500378px" fill="none"/>
   </g>
  </g>
 </g>
</svg>